<svg width="610px" height="58px" viewBox="0 0 610 58" version="1.1" xmlns="http://www.w3.org/2000/svg" xmlns:xlink="http://www.w3.org/1999/xlink">
    <defs>
        <polygon id="path-1" points="0 57.4081901 609.103555 57.4081901 609.103555 -0.000231939163 0 -0.000231939163"></polygon>
    </defs>
    <g id="Logo" stroke="none" stroke-width="1" fill="none" fill-rule="evenodd">
        <g>
            <path d="M440.802932,8.42379848 L466.282608,8.42379848 L466.282608,0.47408365 L432.853217,0.47408365 L432.853217,11.8309848 L432.853217,44.8915932 L432.853217,56.2484943 L466.282608,56.2484943 L466.282608,48.2999392 L440.802932,48.2999392 L440.802932,44.8915932 L440.802932,36.2321445 L440.802932,36.2309848 C440.799452,33.7283612 442.100631,31.2860418 444.161411,29.8712129 C445.174985,29.1440837 446.361354,28.666289 447.592951,28.4749392 C447.97797,28.4157947 448.365308,28.3902814 448.752646,28.3740456 C449.609662,28.3404144 450.468996,28.3740456 451.326011,28.3566502 L466.282608,28.3566502 L466.282608,20.4080951 L451.326011,20.4080951 L449.455422,20.4080951 L448.989224,20.4080951 L448.752646,20.4162129 L448.122932,20.4382471 C447.522209,20.4568023 446.920327,20.5298631 446.319605,20.6272776 C444.39103,20.9322776 442.508844,21.6037414 440.802932,22.5941217 L440.802932,11.8309848 L440.802932,8.42379848 Z" id="Fill-1" fill="#CB8331"></path>
            <path d="M448.123511,20.4385951 L448.753226,20.4154011 L448.753226,16.3738612 L466.283188,16.3738612 L466.283188,8.42414639 L440.803511,8.42414639 L440.803511,11.830173 L440.803511,22.5933099 C442.509424,21.6040894 444.39161,20.9326255 446.320184,20.6276255 C446.920907,20.530211 447.521629,20.4571502 448.123511,20.4385951" id="Fill-3" fill="#F7C458"></path>
            <path d="M444.160831,29.8713289 C442.101211,31.2861578 440.800032,33.7284772 440.802352,36.2299411 L440.802352,44.8917091 L440.802349,48.2988954 L466.283188,48.2988954 L466.283188,40.3480209 L448.753226,40.3480209 L448.753226,36.3656255 C448.77642,36.3435913 448.810051,36.3250361 448.865717,36.3227167 C448.880793,36.3203973 448.895869,36.3088004 448.920222,36.3192376 C448.946895,36.3203973 448.901667,36.3122795 448.988644,36.3088004 L449.456002,36.3088004 L451.325432,36.3088004 L466.283188,36.3088004 L466.283188,28.3579259 L451.325432,28.3579259 C450.469576,28.3753213 449.609082,28.3405304 448.753226,28.3741616 C448.364728,28.3903973 447.978549,28.4159106 447.592371,28.4750551 C446.360774,28.6664049 445.174405,29.1441996 444.160831,29.8713289" id="Fill-5" fill="#F7C458"></path>
            <polygon id="Fill-7" fill="#CB8331" points="323.535534 34.7886711 331.51888 10.7354202 331.52004 10.7354202 334.935344 0.444279468 326.558861 0.444279468 308.046637 56.2186901 316.42196 56.2186901 321.702055 40.3123023"></polygon>
            <polygon id="Fill-9" fill="#CB8331" points="340.697641 34.7886711 331.912945 34.7886711 329.273477 42.7383859 343.731405 42.7383859 346.76401 50.6892605 348.874656 56.2186901 357.384504 56.2186901 339.957755 10.5510285 335.999713 22.4761806"></polygon>
            <polygon id="Fill-11" fill="#F7C458" points="357.384736 56.21927 365.893424 56.21927 344.611846 0.44369962 343.311827 0.44369962 334.935344 0.44369962 331.52004 10.7348403 323.536694 34.789251 321.702055 40.3117224 316.42312 56.21927 324.799603 56.21927 326.635401 50.6886806 346.764241 50.6886806 343.731637 42.7389658 329.273709 42.7389658 331.913177 34.789251 335.999945 22.4756008 339.957987 10.5504487 339.957987 10.549289"></polygon>
            <polygon id="Fill-13" fill="#F7C458" points="371.456717 56.21927 379.499207 56.21927 382.582838 36.0417224 377.294625 18.0084525"></polygon>
            <polygon id="Fill-15" fill="#F7C458" points="385.420614 17.4646711 393.141869 43.7955646 397.284302 29.6681502 388.71531 0.443815589 380.430443 0.443815589 380.429283 0.443815589 385.420614 17.4658308"></polygon>
            <polygon id="Fill-17" fill="#CB8331" points="415.069397 56.21927 423.111888 56.21927 417.272819 18.0096122 411.985766 36.0417224"></polygon>
            <polygon id="Fill-19" fill="#F7C458" points="423.111888 56.21927 431.154378 56.21927 422.631774 0.44369962 422.424188 0.44369962 414.138162 0.44369962 409.14799 17.4645551 401.426736 43.7954487 401.426736 43.7954487 397.784131 56.21927 406.068998 56.21927 411.985766 36.0417224 417.272819 18.0096122 417.272819 18.0084525"></polygon>
            <polygon id="Fill-21" fill="#CB8331" points="409.14799 17.4646711 409.14799 17.4646711 414.138162 0.443815589 405.853295 0.443815589 397.284302 29.6681502 393.141869 43.7955646 393.141869 43.7967243 385.420614 17.4658308 380.429283 0.443815589 372.144416 0.443815589 371.936831 0.443815589 363.414226 56.2193859 371.456717 56.2193859 377.294625 18.0085684 382.582838 36.0418384 388.499606 56.2193859 389.499264 56.2193859 397.784131 56.2193859 401.426736 43.7955646"></polygon>
            <polygon id="Fill-23" fill="#F7C458" points="16.2784183 0.444047529 8.13851331 0.444047529 17.4381141 42.8390475 21.8066882 25.6477167"></polygon>
            <polygon id="Fill-25" fill="#CB8331" points="32.6652681 15.1973498 29.001789 0.44369962 28.2120361 0.44369962 21.8070361 25.6485285 17.4373023 42.8386996 17.4373023 42.8398593 8.13886122 0.44369962 0.000115969582 0.44369962 12.2325875 56.21927 14.0370741 56.21927 22.2396027 56.21927 25.6061996 42.9732243"></polygon>
            <polygon id="Fill-27" fill="#CB8331" points="64.7415266 0.444047529 55.673865 41.8799791 55.673865 41.8788194 51.3481996 24.4578688 45.3850437 0.444047529 37.1941122 0.444047529 37.2242643 0.570454373 40.86223 15.2197319 47.5107662 41.9924696 51.0431996 56.2196179 59.2341312 56.2196179 60.6744734 56.2196179 72.8791122 0.444047529"></polygon>
            <polygon id="Fill-29" fill="#F7C458" points="47.5103023 41.9937452 40.8629259 15.2210076 40.8629259 15.2198479 37.2249601 0.570570342 37.1936483 0.444163498 29.001557 0.444163498 32.6650361 15.1978137 32.6650361 15.1989734 25.6059677 42.9736882 22.2393707 56.2197338 30.4430589 56.2197338 36.7193327 31.5240114 42.8506445 56.2197338 51.0427357 56.2197338 47.5103023 41.9925856"></polygon>
            <polygon id="Fill-31" fill="#F7C458" points="64.7409468 0.444047529 56.6022015 0.444047529 51.3476198 24.4578688 55.6744449 41.8788194"></polygon>
            <path d="M86.9519049,28.7615 L79.0020662,28.7615 C78.9824753,23.3329639 81.316943,17.9937243 85.1961255,14.2200741 C89.0451559,10.4151122 94.3867148,8.14674715 99.8048137,8.10615779 C102.509224,8.07252662 105.220593,8.56655703 107.724376,9.59056844 C110.229319,10.6099411 112.518559,12.1500171 114.413502,14.079751 C118.2347,17.9345798 120.336068,23.3526787 120.322221,28.7615 L112.372437,28.7615 C112.370118,25.3056065 111.057342,21.9877167 108.736791,19.6462909 C106.424357,17.2932681 103.275783,16.0094848 99.9126654,16.0558726 C96.5576654,16.0721084 93.1957072,17.4904163 90.7673042,19.8933061 C88.3215057,22.2892376 86.9495856,25.5004354 86.9519049,28.7615" id="Fill-33" fill="#CB8331"></path>
            <path d="M120.322616,28.7615 C120.335373,23.3526787 118.235163,17.9334202 114.413966,14.079751 C112.519023,12.1500171 110.228624,10.6099411 107.72484,9.59056844 C105.221057,8.56655703 102.508529,8.07252662 99.8052776,8.10615779 C94.386019,8.14674715 89.0444601,10.4151122 85.1965894,14.2200741 C81.3162471,17.9937243 78.9829392,23.3329639 79.0014943,28.7615 L71.0517795,28.7615 C71.0529392,24.9866901 71.8380532,21.1886863 73.3282624,17.7316331 C74.8138327,14.2687814 76.9789848,11.1468802 79.6265703,8.54684221 C82.2718365,5.94680418 85.4030152,3.85935171 88.827597,2.4213289 C92.2486996,0.9786673 95.9724829,0.198192015 99.6974259,0.156442966 C103.420049,0.106576046 107.220373,0.79311597 110.730772,2.22997909 C114.24465,3.65988403 117.451209,5.82387643 120.090677,8.51321103 C122.738262,11.1990665 124.808319,14.4183821 126.191837,17.888192 C127.579992,21.3591616 128.270011,25.0841046 128.272331,28.7615 L120.322616,28.7615 Z" id="Fill-35" fill="#F7C458"></path>
            <path d="M236.803508,11.3173555 C235.370124,10.3988764 233.780181,9.75756464 232.165884,9.23686122 C231.340181,9.03855323 230.528394,8.77182319 229.680656,8.68252662 C229.259686,8.62106274 228.841036,8.54452281 228.420067,8.49697529 L227.145561,8.43319202 C226.382481,8.41695627 225.618241,8.4088384 224.854002,8.40303992 L224.854002,16.348116 L225.872215,16.348116 L226.491492,16.3504354 L226.876511,16.3782681 C227.133964,16.3945038 227.390257,16.4049411 227.647709,16.4107395 C227.901683,16.4408916 228.151017,16.4953973 228.403831,16.5278688 C228.917576,16.5638194 229.394211,16.7540095 229.891721,16.854903 C230.850789,17.1796179 231.809857,17.5391236 232.665713,18.1050551 C234.43193,19.1383441 235.868793,20.7039335 236.889325,22.463192 C237.89826,24.2433251 238.384173,26.2577167 238.429401,28.3208156 L246.379116,28.3208156 C246.339686,24.9252262 245.495428,21.5226787 243.817348,18.563135 C242.128831,15.6175076 239.73058,13.0580589 236.803508,11.3173555" id="Fill-37" fill="#CB8331"></path>
            <mask id="mask-2" fill="white">
                <use xlink:href="#path-1"></use>
            </mask>
            <g id="Clip-40"></g>
            <polygon id="Fill-39" fill="#CB8331" mask="url(#mask-2)" points="208.953992 40.2910798 216.903707 40.2910798 216.903707 0.443931559 208.953992 0.443931559"></polygon>
            <path d="M246.380044,28.3209316 C246.344093,30.3585171 246.041413,32.3856654 245.451127,34.3362738 C244.824892,36.2764449 243.894816,38.1087643 242.737439,39.7822053 C241.593979,41.4718821 240.115367,42.9122243 238.511508,44.1577376 C237.719435,44.8025285 236.832268,45.3058365 235.962496,45.8358175 C235.045177,46.2753422 234.140614,46.7496578 233.168789,47.0604563 C231.254131,47.740038 229.233941,48.1702852 227.196356,48.205076 C226.064492,48.2468251 224.932629,48.2491445 223.799606,48.2445057 L208.868523,48.2445057 L208.868523,48.2456654 L187.331812,48.2456654 L187.331812,11.7755513 L187.331812,0.444163498 L179.382097,0.444163498 L179.382097,11.7755513 L179.382097,56.1942205 L223.799606,56.1942205 L223.799606,56.1919011 L224.142876,56.1919011 L225.670196,56.1919011 L226.433276,56.1919011 L227.48512,56.1501521 C230.321736,56.0875285 233.16415,55.5007224 235.847686,54.5451331 C237.20685,54.0963308 238.483675,53.455019 239.7605,52.8195057 C240.988618,52.0958555 242.217895,51.3698859 243.332363,50.4792395 C245.578694,48.7431749 247.623238,46.7160266 249.234055,44.3630038 C250.859949,42.0273764 252.157648,39.4563308 253.030899,36.7345247 C253.869359,34.0011217 254.294968,31.1563878 254.329759,28.3209316 L246.380044,28.3209316 Z" id="Fill-41" fill="#CB8331" mask="url(#mask-2)"></path>
            <path d="M223.799954,48.2441578 C224.932977,48.2476369 226.06484,48.2464772 227.196703,48.2058878 C229.234289,48.171097 231.253319,47.7385304 233.167977,47.0601084 C234.140962,46.7493099 235.044365,46.276154 235.962844,45.8354696 C236.832616,45.3066483 237.718624,44.8010209 238.511856,44.1585494 C240.114555,42.9118764 241.593167,41.4715342 242.736627,39.7818574 C243.895163,38.109576 244.82408,36.2772567 245.450316,34.3359259 C246.04176,32.3853175 246.344441,30.3581692 246.379232,28.3205837 L238.429517,28.3205837 C238.393567,29.5591388 238.213814,30.7698612 237.870544,31.9376749 C237.491323,33.096211 236.93003,34.1909639 236.240011,35.2010589 C235.562749,36.2273897 234.650068,37.0809259 233.69216,37.8347281 C233.221323,38.2336635 232.676266,38.5154696 232.163681,38.8506217 C231.605867,39.0953175 231.074726,39.4026369 230.48908,39.5754316 C229.34446,39.977846 228.146494,40.2526939 226.907939,40.2596521 L226.433624,40.2921236 L225.669384,40.2921236 L224.854118,40.2921236 L224.854118,16.347884 L224.854118,8.40396768 C225.618357,8.40860646 226.382597,8.41672433 227.145677,8.43296008 L228.419023,8.49790304 C228.841152,8.54545057 229.259802,8.6208308 229.680772,8.68113498 C230.52851,8.77159125 231.340297,9.0371616 232.166,9.23662928 C233.780297,9.756173 235.37024,10.3986445 236.803624,11.3171236 C239.730696,13.057827 242.128947,15.6172757 243.817464,18.562903 C245.495544,21.5224468 246.339802,24.926154 246.379232,28.3205837 L246.380392,28.3205837 L254.330106,28.3205837 C254.295316,23.5925038 253.093871,18.8018004 250.745487,14.662846 C248.390144,10.5308498 245.030506,6.97638213 240.942578,4.52942395 C238.930506,3.25723764 236.709688,2.33411977 234.440163,1.61858745 C233.286266,1.32170532 232.139327,0.978435361 230.956437,0.833473384 C230.368471,0.746496198 229.780506,0.647922053 229.190221,0.584138783 L227.414726,0.486724335 L226.526399,0.449614068 L225.872331,0.447294677 L224.854118,0.447294677 L224.854118,0.443815589 L216.904403,0.443815589 L216.904403,40.2921236 L216.903243,40.2921236 L208.953529,40.2921236 L208.868871,40.2921236 L208.868871,40.294443 L195.281875,40.294443 L195.281875,11.7763631 L195.281875,0.443815589 L187.33216,0.443815589 L187.33216,11.7763631 L187.33216,48.2441578 L208.868871,48.2441578 L223.799954,48.2441578 Z" id="Fill-42" fill="#F7C458" mask="url(#mask-2)"></path>
            <path d="M71.0513156,28.7615 L79.0010304,28.7615 C78.9813156,34.1888764 81.316943,39.5292757 85.1961255,43.3017662 C89.0451559,47.1078878 94.3867148,49.3762529 99.8048137,49.4168422 C102.508065,49.4504734 105.220593,48.956443 107.724376,47.9324316 C110.229319,46.9130589 112.518559,45.3729829 114.414662,43.443249 C118.235859,39.5884202 120.336068,34.1703213 120.322152,28.7615 L128.273027,28.7615 C128.269548,32.4388954 127.579529,36.1626787 126.191373,39.6336483 C124.807856,43.1034582 122.737798,46.3227738 120.091373,49.0086293 C117.451905,51.6979639 114.245346,53.863116 110.731468,55.2918612 C107.219909,56.729884 103.420745,57.4152643 99.6981217,57.3653973 C95.972019,57.324808 92.2493954,56.543173 88.8282928,55.1016711 C85.4025513,53.6624886 82.2725323,51.5750361 79.6261065,48.9749981 C76.9796806,46.3749601 74.8133688,43.2542186 73.3277985,39.7913669 C71.838749,36.333154 71.0524753,32.5351502 71.0513156,28.7615" id="Fill-43" fill="#CB8331" mask="url(#mask-2)"></path>
            <path d="M120.322674,28.7615 C120.335373,34.1691616 118.235163,39.5884202 114.413966,43.443249 C112.519023,45.3718232 110.228624,46.9130589 107.72484,47.9324316 C105.221057,48.956443 102.508529,49.4493137 99.8052776,49.4168422 C94.386019,49.3762529 89.0444601,47.1078878 85.1965894,43.3017662 C81.3162471,39.5292757 78.9829392,34.1888764 79.0013845,28.7615 L86.9523688,28.7615 C86.9488897,32.0214049 88.3219696,35.2337624 90.7666084,37.6285342 C93.1950114,40.031424 96.5569696,41.4497319 99.9119696,41.4659677 C103.275087,41.5135152 106.424821,40.2297319 108.737255,37.8767091 C111.057806,35.5352833 112.370582,32.2173935 112.372901,28.7615 L120.322674,28.7615 Z" id="Fill-44" fill="#F7C458" mask="url(#mask-2)"></path>
            <path d="M152.966198,42.3663555 L152.208916,42.4023061 C151.979297,42.4115837 151.645304,42.4266597 151.531654,42.4220209 L149.966065,42.4220209 L153.556483,48.1462795 L158.619715,56.2189221 L168.003973,56.2189221 L160.346502,44.0131236 L158.605798,41.2368118 C157.269829,41.7006901 155.889791,42.055557 154.472643,42.2225532 C153.975133,42.3048916 153.471825,42.3443213 152.966198,42.3663555" id="Fill-45" fill="#CB8331" mask="url(#mask-2)"></path>
            <path d="M159.21603,10.5336331 C157.408065,9.37509696 155.326411,8.60969772 153.176335,8.45313878 C152.101297,8.37543916 151.025099,8.40327186 149.947741,8.39747338 L147.674738,8.39747338 L147.674738,16.3483479 L149.947741,16.3483479 L151.562038,16.3483479 C152.248578,16.3379106 152.253217,16.3819791 152.514148,16.3761806 C153.360726,16.4272072 154.137722,16.7438042 154.853255,17.1798498 C155.55951,17.6390894 156.134719,18.300116 156.554529,19.0202871 C156.93143,19.7694506 157.141335,20.5708004 157.161049,21.4347738 L165.110764,21.4347738 C165.096848,19.2812186 164.55411,17.1381008 163.546335,15.2361996 C162.500289,13.3586521 161.019357,11.7130437 159.21603,10.5336331" id="Fill-46" fill="#F7C458" mask="url(#mask-2)"></path>
            <path d="M167.137333,39.8770684 L165.531154,37.3176198 C166.991211,36.0883422 168.299348,34.6700342 169.403378,33.0766122 C170.561914,31.4124487 171.45488,29.5395399 172.10315,27.5761749 C172.735184,25.5977338 173.027428,23.5114411 173.061059,21.4355856 L165.111344,21.4355856 C165.076553,22.6984943 164.911876,23.9637224 164.525698,25.1709658 C164.118644,26.3689316 163.584025,27.5274677 162.856895,28.5653954 C161.414234,30.6470494 159.387086,32.3123726 157.066534,33.3247871 C155.9022,33.8083802 154.684519,34.2049962 153.42393,34.3418403 C153.237219,34.3661939 153.048188,34.3789506 152.860317,34.3951863 C151.788759,34.4914411 150.709082,34.4694068 149.634044,34.4717262 L147.674158,34.4717262 L147.674158,42.4214411 L149.634044,42.4214411 L149.965717,42.4214411 L151.531306,42.4214411 C151.644956,42.4260798 151.978949,42.4121635 152.208568,42.4028859 L152.96585,42.3657757 C153.471477,42.3449011 153.974785,42.3054715 154.472295,42.2219734 C155.890603,42.0561369 157.269481,41.7001103 158.605451,41.2373916 L158.60661,41.2373916 L160.347314,44.011384 L168.004785,56.2195019 L177.389044,56.2195019 L167.137333,39.8770684 Z" id="Fill-47" fill="#F7C458" mask="url(#mask-2)"></path>
            <path d="M147.674506,34.4716103 L149.633232,34.4716103 C150.70943,34.4692909 151.789106,34.4924848 152.860665,34.39623 C153.048536,34.3788346 153.236407,34.3660779 153.424278,34.3417243 C154.684867,34.2048802 155.902548,33.8082643 157.066882,33.3246711 C159.387433,32.311097 161.413422,30.6457738 162.856084,28.5652795 C163.583213,27.5273517 164.118992,26.3688156 164.524886,25.1708498 C164.911065,23.9624468 165.075741,22.699538 165.110532,21.4354696 L157.160817,21.4354696 C157.124867,21.887751 157.087757,22.3295951 156.947433,22.7679601 C156.783916,23.1970475 156.605323,23.6423707 156.309601,24.0563821 C155.733232,24.8844049 154.858821,25.6184924 153.878878,26.0406217 C153.386008,26.2319715 152.887338,26.424481 152.374753,26.4604316 C152.249506,26.4940627 152.120779,26.4975418 151.994373,26.4952224 L151.803023,26.5068194 C151.717205,26.5114582 151.734601,26.5242148 151.531654,26.5218954 L149.633232,26.5218954 L147.674506,26.5218954 L147.674506,16.347884 L147.674506,8.3981692 L149.94751,8.3981692 C151.024867,8.40280798 152.101065,8.37497529 153.176103,8.4526749 C155.326179,8.60923384 157.408992,9.37463308 159.216958,10.5331692 C161.019125,11.7114202 162.500057,13.3581882 163.546103,15.2357357 C164.553878,17.1387966 165.096616,19.2807548 165.111692,21.4354696 L173.061407,21.4354696 C173.05097,17.9934924 172.17424,14.5086065 170.537909,11.4516483 C168.865627,8.41556464 166.478973,5.78537452 163.578574,3.88811217 C160.678175,2.00824525 157.290703,0.791724335 153.83597,0.530792776 C151.828536,0.40206654 151.085171,0.462370722 149.94751,0.447294677 L147.674506,0.447294677 L147.674506,0.443815589 L139.724791,0.443815589 L139.724791,56.2193859 L147.674506,56.2193859 L147.674506,42.4213251 L147.674506,34.4716103 Z" id="Fill-48" fill="#CB8331" mask="url(#mask-2)"></path>
            <polygon id="Fill-49" fill="#F7C458" mask="url(#mask-2)" points="131.773916 56.2195019 139.723631 56.2195019 139.723631 0.443931559 131.773916 0.443931559"></polygon>
            <path d="M314.116369,8.42379848 L314.116369,0.47408365 L279.355646,0.47408365 L279.355646,36.4258137 L279.355646,37.179616 L279.355646,38.6443118 L279.355646,44.5019354 L279.355646,44.8915932 L279.355646,56.2195019 L287.305361,56.2195019 L287.305361,44.8915932 L287.305361,44.5019354 L287.305361,38.6443118 C287.306521,38.6234373 287.305361,38.6025627 287.306521,38.5816882 C287.31,38.2627719 287.30884,37.9450152 287.306521,37.6260989 C287.306521,37.6168213 287.306521,37.6075437 287.305361,37.5982662 L287.305361,37.5588365 C287.304202,37.3071825 287.304202,37.0543688 287.305361,36.8038745 L287.305361,36.7609658 C287.305361,36.7516882 287.306521,36.7424106 287.306521,36.7331331 C287.30884,36.3933422 287.315798,36.054711 287.338992,35.7149202 C287.420171,34.7430951 287.69038,33.7875057 288.129905,32.9154144 C289.003156,31.1665932 290.55251,29.7807567 292.368593,29.0629049 C293.29403,28.6616502 294.269335,28.5282852 295.256236,28.4865361 C296.221103,28.4471065 297.197567,28.4958137 298.153156,28.4749392 L309.869563,28.4749392 L309.869563,20.5252243 L298.153156,20.5252243 L296.68846,20.5252243 L295.955532,20.5252243 L295.590228,20.5252243 L295.366407,20.5275437 L295.256236,20.5298631 L295.01154,20.537981 C293.130513,20.5820494 291.221654,20.9577909 289.441521,21.6710038 C288.709753,21.9609278 287.998859,22.3215932 287.306521,22.7228479 L287.305361,22.7228479 L287.305361,8.42379848 L314.116369,8.42379848 Z" id="Fill-50" fill="#CB8331" mask="url(#mask-2)"></path>
            <path d="M295.012004,20.5383289 L295.2567,20.530211 L295.2567,16.3738612 L314.116833,16.3738612 L314.116833,8.42414639 L287.305825,8.42414639 L287.305825,22.7231958 C287.998163,22.3219411 288.710217,21.9612757 289.440825,21.6713517 C291.222118,20.9569791 293.130977,20.5823973 295.012004,20.5383289" id="Fill-51" fill="#F7C458" mask="url(#mask-2)"></path>
            <path d="M288.129673,32.9155304 C287.691308,33.7876217 287.421099,34.743211 287.33876,35.7150361 C287.315567,36.054827 287.308608,36.3934582 287.306289,36.733249 L287.306289,36.7773175 C287.306289,36.7854354 287.306289,36.7947129 287.306289,36.8039905 C287.305129,37.0544848 287.30397,37.3072985 287.306289,37.5589525 C287.306289,37.56823 287.306289,37.5775076 287.306289,37.5856255 L287.306289,37.6262148 C287.308608,37.9451312 287.309768,38.2628878 287.306289,38.5818042 L287.306289,38.6432681 L287.306289,44.5020513 L287.306289,44.8917091 L287.306289,56.2196179 L295.257163,56.2196179 L295.265281,36.4734772 L295.261802,36.4746369 C295.258323,36.478116 295.252525,36.4757966 295.295433,36.4549221 C295.326745,36.4352072 295.367335,36.4317281 295.435757,36.4328878 L295.447354,36.4270894 C295.426479,36.4224506 295.547087,36.4259297 295.589996,36.42477 L295.95646,36.42477 L296.688228,36.42477 L298.152924,36.42477 L309.87049,36.42477 L309.87049,28.4750551 L298.152924,28.4750551 C297.197335,28.49477 296.220871,28.4460627 295.257163,28.4878118 L295.257163,28.4866521 C294.269103,28.5284011 293.293798,28.6617662 292.368361,29.0630209 C290.552278,29.7808726 289.002924,31.1667091 288.129673,32.9155304" id="Fill-52" fill="#F7C458" mask="url(#mask-2)"></path>
            <path d="M518.500279,28.6063327 C518.486432,23.1986711 520.5878,17.7794125 524.408998,13.9257433 C526.303941,11.9960095 528.593181,10.4547738 531.098124,9.43656084 C533.601907,8.41254943 536.314435,7.91851901 539.017686,7.95215019 C544.435785,7.99157985 549.778504,10.2611046 553.626375,14.0660665 C557.506717,17.838557 559.840025,23.1789563 559.821579,28.6063327 L551.870595,28.6063327 C551.872914,25.3464278 550.500994,22.1340703 548.055196,19.7392985 C545.626793,17.3364087 542.265994,15.9181008 538.909835,15.901865 C535.547876,15.8554772 532.398143,17.1392605 530.085709,19.4922833 C527.765158,21.8337091 526.451222,25.1515989 526.450063,28.6063327 L518.500279,28.6063327 Z" id="Fill-53" fill="#F7C458" mask="url(#mask-2)"></path>
            <path d="M593.203314,28.6063327 L601.153152,28.6063327 C601.172743,34.0348688 598.838276,39.3741084 594.959093,43.1477586 C591.110063,46.9527205 585.768504,49.2210856 580.349245,49.2616749 C577.645994,49.2953061 574.934625,48.8012757 572.430842,47.7772643 C569.925899,46.7590513 567.63666,45.2178156 565.740557,43.2880817 C561.919359,39.4344125 559.81915,34.015154 559.832998,28.6063327 L567.782781,28.6063327 C567.783941,32.0622262 569.097876,35.3812757 571.418428,37.7227015 C573.730861,40.0745646 576.879435,41.3583479 580.242553,41.3119601 C583.597553,41.2957243 586.959511,39.8774163 589.387914,37.4745266 C591.832553,35.0797548 593.205633,31.8673973 593.203314,28.6063327" id="Fill-54" fill="#CB8331" mask="url(#mask-2)"></path>
            <path d="M559.832603,28.6063327 C559.818686,34.015154 561.920055,39.4344125 565.741253,43.2880817 C567.636196,45.2178156 569.925435,46.7590513 572.430378,47.778424 C574.934162,48.8012757 577.64553,49.2953061 580.348781,49.2628346 C585.76804,49.2210856 591.110759,46.9527205 594.958629,43.1477586 C598.838971,39.3752681 601.172279,34.0348688 601.153724,28.6063327 L609.103439,28.6063327 C609.10112,32.3811426 608.317165,36.1791464 606.825797,39.6373593 C605.341386,43.0990513 603.175074,46.2209525 600.528648,48.8209905 C597.883382,51.4210285 594.751044,53.508481 591.326462,54.9476635 C587.905359,56.3891654 584.182736,57.1708004 580.456633,57.2113897 C576.73401,57.2612567 572.934846,56.5758764 569.424447,55.1378536 C565.909409,53.7091084 562.70401,51.5439563 560.064542,48.8546217 C557.416956,46.1687662 555.346899,42.9494506 553.963382,39.4796407 C552.575226,36.0086711 551.885207,32.2837281 551.881728,28.6063327 L559.832603,28.6063327 Z" id="Fill-55" fill="#F7C458" mask="url(#mask-2)"></path>
            <path d="M606.826376,17.5766977 C605.341966,14.1150057 603.175654,10.9919449 600.528068,8.39306654 C597.882802,5.79302852 594.751624,3.70557605 591.327042,2.26639354 C587.905939,0.824891635 584.183316,0.043256654 580.457213,0.00266730038 C576.734589,-0.0471996198 572.934266,0.639340304 569.423867,2.07620342 C565.909989,3.50494867 562.70343,5.66894106 560.063962,8.35943536 C557.417536,11.0452909 555.346319,14.2646065 553.962802,17.7344163 C552.575806,21.2053859 551.885787,24.9303289 551.882308,28.6065646 L551.870711,28.6065646 C551.87303,31.8664696 550.50111,35.0799867 548.055312,37.4747586 C545.626909,39.8764886 542.26611,41.2959563 538.909951,41.312192 C535.547992,41.3585798 532.398259,40.0736369 530.085825,37.7217738 C527.765274,35.3803479 526.451338,32.0624582 526.450179,28.6065646 L518.500464,28.6065646 C518.487707,34.0153859 520.587916,39.4346445 524.409114,43.2883137 C526.304057,45.2180475 528.593297,46.7592833 531.09824,47.7774962 C533.602023,48.8015076 536.314551,49.295538 539.017802,49.2607471 C544.435901,49.2213175 549.77746,46.9529525 553.625331,43.1479905 C557.505673,39.3743403 559.840141,34.0339411 559.820426,28.6065646 L559.832023,28.6065646 C559.819266,23.198903 561.919475,17.7796445 565.740673,13.9259753 C567.636776,11.9962414 569.926015,10.453846 572.430958,9.43447338 C574.933582,8.41162167 577.64611,7.91875095 580.349361,7.95122243 C585.76862,7.99065209 591.110179,10.2590171 594.959209,14.0662985 C598.838392,17.8399487 601.172859,23.1791882 601.153144,28.6065646 L609.104019,28.6065646 C609.1017,24.8329144 608.316586,21.033751 606.826376,17.5766977" id="Fill-56" fill="#CB8331" mask="url(#mask-2)"></path>
            <path d="M567.771532,28.6063327 L559.821817,28.6063327 C559.841532,23.1789563 557.505905,17.838557 553.626722,14.0660665 C549.777692,10.2599449 544.436133,7.99157985 539.018034,7.95099049 C536.314783,7.91851901 533.602255,8.41138973 531.098471,9.43540114 C528.593529,10.4547738 526.304289,11.9960095 524.408186,13.9257433 C520.586989,17.7794125 518.486779,23.1986711 518.499536,28.6063327 L510.549821,28.6063327 C510.5533,24.930097 511.243319,21.205154 512.631475,17.7341844 C514.014992,14.2643745 516.085049,11.0450589 518.731475,8.35920342 C521.370943,5.66986882 524.577502,3.50471673 528.09138,2.07597148 C531.602939,0.639108365 535.402103,-0.0474315589 539.124726,0.00243536122 C542.850829,0.0430247148 546.573452,0.824659696 549.994555,2.2661616 C553.419137,3.70534411 556.550316,5.79279658 559.196741,8.3928346 C561.843167,10.9928726 564.009479,14.1147738 565.49389,17.5776255 C566.984099,21.0346787 567.769213,24.8326825 567.771532,28.6063327" id="Fill-57" fill="#CB8331" mask="url(#mask-2)"></path>
            <path d="M594.958745,14.0659506 C591.110875,10.2609886 585.768156,7.99146388 580.348897,7.95319392 C577.645646,7.91840304 574.934278,8.41243346 572.430494,9.43644487 C569.925551,10.4546578 567.636312,11.9958935 565.741369,13.9256274 C561.920171,17.7792966 559.818802,23.1985551 559.832719,28.6062167 L559.821122,28.6062167 C559.840837,34.0347529 557.506369,39.3751521 553.626027,43.1476426 C549.778156,46.9526046 544.436597,49.2209696 539.017338,49.2627186 C536.314087,49.2951901 533.601559,48.8011597 531.098935,47.778308 C528.592833,46.7589354 526.303593,45.2176996 524.40865,43.2879658 C520.587452,39.4342966 518.487243,34.015038 518.5,28.6062167 L510.550285,28.6062167 C510.553764,32.2836122 511.242624,36.0085551 512.630779,39.4795247 C514.014297,42.9493346 516.084354,46.1686502 518.731939,48.8545057 C521.371407,51.5438403 524.577966,53.7089924 528.091844,55.1377376 C531.602243,56.5757605 535.402567,57.2611407 539.12403,57.2112738 C542.850133,57.1706844 546.572757,56.3890494 549.995019,54.9475475 C553.419601,53.508365 556.54962,51.4209125 559.197205,48.8208745 C561.842471,46.2219962 564.008783,43.0989354 565.494354,39.6372433 C566.984563,36.1790304 567.769677,32.3810266 567.771996,28.6062167 L567.782433,28.6062167 C567.783593,25.1514829 569.097529,21.8335932 571.41808,19.4921673 C573.730513,17.1391445 576.879087,15.8553612 580.243365,15.901749 C583.597205,15.9179848 586.960323,17.3362928 589.387567,19.7391825 C591.833365,22.1339544 593.205285,25.3474715 593.202966,28.6062167 L601.15384,28.6062167 C601.172395,23.1788403 598.839087,17.8396008 594.958745,14.0659506" id="Fill-58" fill="#F7C458" mask="url(#mask-2)"></path>
            <path d="M467.94654,0.473503802 C467.94654,0.570918251 467.944221,0.6683327 467.943061,0.765747148 C467.94538,0.664853612 467.94654,0.566279468 467.94654,0.473503802" id="Fill-59" fill="#F7C458" mask="url(#mask-2)"></path>
            <polyline id="Fill-60" fill="#F7C458" mask="url(#mask-2)" points="509.081183 56.0890361 501.131468 55.0569068 501.131468 13.7241882 501.131468 0.679929658 493.180593 0.679929658 493.180593 13.7241882 493.180593 56.0762795"></polyline>
            <polyline id="Fill-61" fill="#CB8331" mask="url(#mask-2)" points="509.081183 46.5487985 509.081183 46.5487985 509.081183 13.7236084 509.081183 0.67934981 501.131468 0.67934981 501.131468 13.7236084 501.131468 56.0768593 509.081183 56.0768593"></polyline>
            <path d="M501.410027,0.423636882 L493.272441,0.423636882 C493.272441,3.76356084 490.877669,5.84405513 487.852023,5.84405513 L487.852023,13.5015266 L487.852023,13.980481 C495.376129,13.980481 501.410027,8.24810456 501.410027,0.423636882" id="Fill-62" fill="#CB8331" mask="url(#mask-2)"></path>
            <path d="M500.931536,17.2403859 L500.931536,17.2160323 C501.796669,16.5225342 502.574825,15.7756901 503.275281,14.9928954 L503.274122,14.9940551 L503.275281,14.9928954 C506.815833,11.2459183 509.004179,6.20935932 509.065643,0.663693916 C509.066802,0.583674905 509.069122,0.503655894 509.069122,0.423636882 L501.41049,0.423636882 C501.41049,8.24810456 495.376593,13.980481 487.852487,13.980481 L487.852487,21.6402719 C489.725395,21.6402719 491.542639,21.3967357 493.272905,20.9398156" id="Fill-63" fill="#F7C458" mask="url(#mask-2)"></path>
        </g>
    </g>
</svg>