<?xml version="1.0" encoding="UTF-8"?>
<svg width="122px" height="135px" viewBox="0 0 122 135" version="1.1" xmlns="http://www.w3.org/2000/svg" xmlns:xlink="http://www.w3.org/1999/xlink">
    <!-- Generator: Sketch 50 (54983) - http://www.bohemiancoding.com/sketch -->
    <title>WF100 Logo: Vertical</title>
    <desc>Created with Sketch.</desc>
    <defs></defs>
    <g id="WF100-Logo:-Vertical" stroke="none" stroke-width="1" fill="none" fill-rule="evenodd">
        <g>
            <polygon id="Fill-1" fill="#F7BF55" points="3.83986957 0.595320882 8.22769565 20.5987991 10.2898696 12.4883644 7.67986957 0.595320882"></polygon>
            <polygon id="Fill-2" fill="#CB8331" points="13.3121739 0.595320882 10.29 12.4883644 8.22782609 20.5987991 3.84 0.595320882 0 0.595320882 0 0.600538273 5.77173913 26.9118426 6.62347826 26.9118426 10.4921739 26.9118426 12.0808696 20.6627122 15.4121739 7.55662523 13.6826087 0.595320882"></polygon>
            <polygon id="Fill-3" fill="#CB8331" points="30.5475652 0.595320882 26.268 20.1474948 26.268 20.1461904 24.228 11.9261904 21.4145217 0.595320882 17.5497391 0.595320882 17.5627826 0.655320882 19.2806087 7.56706001 22.4175652 20.1996687 24.0845217 26.9118426 27.948 26.9118426 28.6275652 26.9118426 34.3862609 0.595320882"></polygon>
            <polygon id="Fill-4" fill="#F7BF55" points="13.6831304 0.595320882 15.4126957 7.55662523 15.4126957 7.55792958 12.0813913 20.6627122 12.080087 20.6627122 10.4926957 26.9118426 10.494 26.9118426 14.364 26.9118426 17.3261739 15.2614078 20.217913 26.9118426 24.084 26.9118426 22.4170435 20.1996687 22.4170435 20.2009731 19.280087 7.56706001 17.5635652 0.655320882 17.5505217 0.595320882"></polygon>
            <polygon id="Fill-5" fill="#F7BF55" points="26.7065217 0.595320882 24.2282609 11.9261904 26.2682609 20.1461904 30.5478261 0.595320882"></polygon>
            <g id="Group-45" transform="translate(0.000000, 0.078408)">
                <path d="M41.0264348,13.8783913 L37.2750741,13.8783913 C37.266,11.3179565 38.3681739,8.79795652 40.1981739,7.01752174 C42.0138261,5.22143478 44.5338261,4.15056522 47.0903478,4.13230435 C48.366,4.11665217 49.6455652,4.35013043 50.8273043,4.83273913 C52.0090435,5.31404348 53.0890435,6.04056522 53.9838261,6.951 C55.7864348,8.76926087 56.7777391,11.3257826 56.7712494,13.8783913 L53.019913,13.8783913 C53.019913,12.2479565 52.4003478,10.6827391 51.3046957,9.57795652 C50.2142609,8.46795652 48.7273043,7.86143478 47.1412174,7.8836087 C45.5590435,7.89143478 43.9729565,8.56056522 42.8264348,9.69404348 C41.672087,10.824913 41.0251304,12.3405652 41.0264348,13.8783913" id="Fill-6" fill="#CB8331"></path>
                <path d="M56.7716087,13.8783913 C56.7781304,11.3257826 55.7868261,8.76926087 53.982913,6.951 C53.0894348,6.04056522 52.0094348,5.31404348 50.8263913,4.83273913 C49.6459565,4.35013043 48.3663913,4.11665217 47.0907391,4.13230435 C44.5342174,4.15056522 42.0142174,5.22143478 40.1985652,7.01752174 C38.3672609,8.79665217 37.2663913,11.3179565 37.2755217,13.8783913 L33.5242174,13.8783913 C33.5255217,12.0979565 33.8959565,10.3057826 34.599,8.67404348 C35.2994348,7.03969565 36.3207391,5.56708696 37.569,4.341 C38.8185652,3.1136087 40.295087,2.12882609 41.9111739,1.45056522 C43.5259565,0.769695652 45.2816087,0.400565217 47.0398696,0.382304348 C48.7968261,0.358826087 50.5903043,0.682304348 52.2455217,1.36056522 C53.9046522,2.03491304 55.4176957,3.05621739 56.6620435,4.32534783 C57.9116087,5.59186957 58.8885652,7.11143478 59.5407391,8.7483913 C60.1955217,10.3853478 60.5216087,12.1436087 60.522913,13.8783913 L56.7716087,13.8783913 Z" id="Fill-8" fill="#F7BF55"></path>
                <path d="M111.731348,5.64795652 C111.054391,5.2136087 110.304391,4.91230435 109.542652,4.66708696 C109.152652,4.57186957 108.769174,4.44665217 108.370043,4.4036087 C108.171783,4.37491304 107.973522,4.33969565 107.775261,4.31752174 L107.173957,4.28752174 C106.812652,4.27969565 106.452652,4.27578261 106.092652,4.27317391 L106.092652,8.02186957 L106.572652,8.02186957 L106.86613,8.02317391 L107.047435,8.03621739 C107.168739,8.04273913 107.290043,8.04795652 107.410043,8.05056522 C107.530043,8.06621739 107.648739,8.091 107.767435,8.10665217 C108.008739,8.1236087 108.234391,8.2136087 108.469174,8.26056522 C108.921783,8.41447826 109.374391,8.58404348 109.778739,8.85013043 C110.612217,9.33795652 111.289174,10.0762174 111.770478,10.907087 C112.24787,11.747087 112.47613,12.6966522 112.498304,13.6696957 L116.249609,13.6696957 C116.230043,12.0679565 115.832217,10.4623043 115.039174,9.06665217 C114.243522,7.67621739 113.112652,6.4683913 111.731348,5.64795652" id="Fill-10" fill="#CB8331"></path>
                <polygon id="Fill-12" fill="#CB8331" points="98.5891304 19.3186957 102.340435 19.3186957 102.340435 0.516521739 98.5891304 0.516521739"></polygon>
                <path d="M116.249348,13.6702174 C116.232391,14.6315217 116.090217,15.588913 115.811087,16.5084783 C115.516304,17.4241304 115.076739,18.288913 114.530217,19.0780435 C113.991522,19.875 113.292391,20.5558696 112.53587,21.1428261 C112.162826,21.4467391 111.74413,21.6854348 111.333261,21.9345652 C110.900217,22.1419565 110.473696,22.3663043 110.01587,22.5123913 C109.111957,22.8332609 108.159783,23.0367391 107.198478,23.0523913 C106.663696,23.0719565 106.128913,23.0719565 105.595435,23.0719565 L98.5506522,23.0719565 L88.3884783,23.0719565 L88.3884783,5.865 L88.3884783,0.517173913 L84.6371739,0.517173913 L84.6371739,5.865 L84.6371739,26.8219565 L105.595435,26.8219565 L105.757174,26.8219565 L106.477174,26.8219565 L106.837174,26.8219565 L107.33413,26.801087 C108.672391,26.771087 110.013261,26.4958696 111.278478,26.0445652 C111.921522,25.8319565 112.52413,25.5293478 113.125435,25.2293478 C113.704565,24.888913 114.285,24.5458696 114.810652,24.1258696 C115.871087,23.3067391 116.835,22.3493478 117.595435,21.2406522 C118.362391,20.1371739 118.975435,18.9241304 119.386304,17.6393478 C119.782826,16.3506522 119.983696,15.0084783 119.999348,13.6702174 L116.249348,13.6702174 Z" id="Fill-14" fill="#CB8331"></path>
                <path d="M105.595565,23.0713043 C106.129043,23.0726087 106.663826,23.0713043 107.198609,23.0530435 C108.159913,23.036087 109.112087,22.8326087 110.016,22.5130435 C110.473826,22.3656522 110.900348,22.1426087 111.333391,21.933913 C111.744261,21.6847826 112.162957,21.446087 112.536,21.1421739 C113.292522,20.5552174 113.991652,19.8756522 114.530348,19.0773913 C115.07687,18.2882609 115.51513,17.4234783 115.809913,16.5091304 C116.089043,15.5882609 116.231217,14.6321739 116.249478,13.6695652 L112.498174,13.6695652 C112.479913,14.2552174 112.396435,14.8252174 112.234696,15.3782609 C112.054696,15.9247826 111.789913,16.44 111.46513,16.9173913 C111.145565,17.4013043 110.71513,17.8030435 110.262522,18.1591304 C110.040783,18.3469565 109.783826,18.48 109.541217,18.6391304 C109.277739,18.753913 109.027304,18.8986957 108.750783,18.9808696 C108.210783,19.17 107.646,19.3004348 107.061652,19.3043478 L106.837304,19.3186957 L106.477304,19.3186957 L106.092522,19.3186957 L106.092522,8.02173913 L106.092522,4.27304348 C106.452522,4.27565217 106.813826,4.27956522 107.173826,4.2873913 L107.77513,4.3173913 C107.973391,4.33956522 108.171652,4.37608696 108.369913,4.40347826 C108.770348,4.44652174 109.153826,4.57173913 109.542522,4.66695652 C110.304261,4.91217391 111.055565,5.21478261 111.731217,5.64782609 C113.112522,6.46826087 114.243391,7.67608696 115.040348,9.06652174 C115.832087,10.4621739 116.229913,12.0678261 116.249478,13.6695652 L119.999478,13.6695652 C119.983826,11.4404348 119.417739,9.18 118.309043,7.22608696 C117.197739,5.27608696 115.612957,3.6 113.683826,2.44565217 C112.734261,1.84565217 111.68687,1.41 110.616,1.07217391 C110.072087,0.931304348 109.530783,0.769565217 108.972522,0.70173913 C108.694696,0.66 108.41687,0.614347826 108.137739,0.583043478 L107.301652,0.537391304 L106.881652,0.520434783 L106.572522,0.519130435 L106.092522,0.519130435 L106.092522,0.516521739 L102.341217,0.516521739 L102.341217,19.3186957 L98.589913,19.3186957 L98.5507826,19.3186957 L98.5507826,19.32 L92.139913,19.32 L92.139913,5.86434783 L92.139913,0.516521739 L88.3886087,0.516521739 L88.3886087,5.86434783 L88.3886087,23.0713043 L98.5507826,23.0713043 L105.595565,23.0713043 Z" id="Fill-15" fill="#F7BF55"></path>
                <path d="M33.5239565,13.8783913 L37.2752609,13.8783913 C37.2661304,16.4388261 38.367,18.9588261 40.1983043,20.7392609 C42.0139565,22.5353478 44.5339565,23.6062174 47.0904783,23.6244783 C48.3661304,23.6401304 49.6456957,23.4066522 50.8274348,22.9240435 C52.0091739,22.4427391 53.0891739,21.7162174 53.9839565,20.8057826 C55.7865652,18.9875217 56.7778696,16.431 56.7713478,13.8783913 L60.5226522,13.8783913 C60.5213478,15.6131739 60.1952609,17.3701304 59.5404783,19.0083913 C58.8883043,20.6453478 57.9113478,22.164913 56.6617826,23.4314348 C55.4174348,24.7005652 53.9043913,25.7218696 52.2465652,26.3962174 C50.5900435,27.0744783 48.7965652,27.3979565 47.0396087,27.3744783 C45.2826522,27.3562174 43.5256957,26.987087 41.9122174,26.3062174 C40.2948261,25.6266522 38.8196087,24.6418696 37.5700435,23.4157826 C36.3217826,22.1896957 35.2991739,20.7157826 34.5987391,19.0827391 C33.8956957,17.451 33.5252609,15.6588261 33.5239565,13.8783913" id="Fill-16" fill="#CB8331"></path>
                <path d="M56.7716407,13.8783913 C56.7781304,16.4296957 55.7868261,18.9875217 53.982913,20.8057826 C53.0894348,21.7162174 52.0094348,22.4427391 50.8263913,22.9240435 C49.6459565,23.4066522 48.3663913,23.6388261 47.0907391,23.6244783 C44.5342174,23.604913 42.0142174,22.5353478 40.1985652,20.7392609 C38.3672609,18.9588261 37.2663913,16.4388261 37.2754654,13.8783913 L41.0268261,13.8783913 C41.0255217,15.4162174 41.6724783,16.9318696 42.8268261,18.0627391 C43.9720435,19.1962174 45.5581304,19.8653478 47.1416087,19.8731739 C48.7276957,19.8953478 50.2146522,19.2888261 51.305087,18.1788261 C52.3994348,17.0740435 53.0203043,15.5088261 53.0203043,13.8783913 L56.7716407,13.8783913 Z" id="Fill-17" fill="#F7BF55"></path>
                <path d="M72.1741304,20.2976087 L71.8167391,20.3145652 C71.7084783,20.3184783 71.5493478,20.325 71.4958696,20.3236957 L70.7576087,20.3236957 L72.4519565,23.025 L74.8415217,26.8336957 L79.2684783,26.8336957 L75.6567391,21.075 L74.835,19.7641304 C74.205,19.9832609 73.5541304,20.1515217 72.885,20.2297826 C72.648913,20.268913 72.4128261,20.2871739 72.1741304,20.2976087" id="Fill-18" fill="#CB8331"></path>
                <path d="M75.123,5.27791304 C74.2699565,4.7313913 73.2877826,4.37008696 72.2716957,4.29704348 C71.7656087,4.25921739 71.256913,4.27226087 70.7495217,4.27095652 L69.6773478,4.27095652 L69.6773478,8.02226087 L70.7495217,8.02226087 L71.5112609,8.02226087 C71.8347391,8.01704348 71.8373478,8.03791304 71.9599565,8.03530435 C72.3603913,8.05878261 72.726913,8.20878261 73.0647391,8.41356522 C73.3973478,8.63008696 73.6686522,8.94313043 73.866913,9.28226087 C74.0456087,9.63573913 74.1434348,10.014 74.1538696,10.4222609 L77.9038696,10.4222609 C77.8973478,9.40617391 77.6416957,8.39530435 77.1656087,7.4966087 C76.6712609,6.61095652 75.9734348,5.83356522 75.123,5.27791304" id="Fill-19" fill="#F7BF55"></path>
                <path d="M78.8602174,19.1231739 L78.1023913,17.9153478 C78.791087,17.3362174 79.4080435,16.6657826 79.9284783,15.9144783 C80.4763043,15.1292609 80.8976087,14.244913 81.2041304,13.3188261 C81.5002174,12.384913 81.6397826,11.4014348 81.6554348,10.4218696 L77.9054348,10.4218696 L77.9041304,10.4218696 C77.8884783,11.0179565 77.808913,11.6153478 77.628913,12.1853478 C77.4358696,12.7488261 77.1841304,13.2966522 76.8397826,13.7857826 C76.1602174,14.7679565 75.2028261,15.5531739 74.1084783,16.0305652 C73.5593478,16.2601304 72.9841304,16.4466522 72.3893478,16.5118696 C72.3019565,16.5236087 72.2119565,16.5288261 72.1245652,16.5366522 C71.6184783,16.5823043 71.1097826,16.5718696 70.601087,16.5731739 L69.6776087,16.5731739 L69.6776087,20.3231739 L70.601087,20.3231739 L70.7576087,20.3231739 L71.4958696,20.3231739 C71.5506522,20.3257826 71.7084783,20.3192609 71.8167391,20.3153478 L72.1741304,20.297087 C72.4128261,20.2879565 72.648913,20.2683913 72.885,20.2292609 C73.5541304,20.151 74.205,19.9840435 74.835,19.764913 L75.6567391,21.0744783 L79.2684783,26.8344783 L83.6967391,26.8344783 L78.8602174,19.1231739 Z" id="Fill-20" fill="#F7BF55"></path>
                <path d="M69.6774783,16.5731739 L70.6009565,16.5731739 C71.1096522,16.5718696 71.6183478,16.5823043 72.1244348,16.5366522 C72.2118261,16.5288261 72.3018261,16.5236087 72.3892174,16.5118696 C72.984,16.4466522 73.5592174,16.2601304 74.1083478,16.0305652 C75.2026957,15.5531739 76.160087,14.7679565 76.8396522,13.7857826 C77.184,13.2966522 77.4357391,12.7488261 77.6274783,12.1853478 C77.8087826,11.6140435 77.8870435,11.0179565 77.904,10.4218696 L74.154,10.4218696 C74.1357391,10.6357826 74.1187826,10.8431739 74.0522609,11.0505652 C73.9753043,11.2527391 73.8905217,11.4627391 73.7509565,11.6583913 C73.4796522,12.0496957 73.0674783,12.3953478 72.6044348,12.594913 C72.3709565,12.684913 72.1374783,12.774913 71.8948696,12.7931739 C71.8348696,12.8088261 71.7748696,12.8101304 71.7148696,12.8088261 L71.6248696,12.8153478 C71.5844348,12.8166522 71.5935652,12.8231739 71.4970435,12.8218696 L70.6009565,12.8218696 L69.6774783,12.8218696 L69.6774783,8.02186957 L69.6774783,4.27056522 L70.7496522,4.27056522 C71.2570435,4.27317391 71.7657391,4.26013043 72.2718261,4.29665217 C73.287913,4.36969565 74.270087,4.731 75.1231304,5.27752174 C75.9735652,5.83447826 76.6713913,6.61056522 77.1657391,7.49752174 C77.6405217,8.39491304 77.8974783,9.40578261 77.9053043,10.4218696 L81.6553043,10.4218696 C81.650087,8.79795652 81.2366087,7.15317391 80.4644348,5.71056522 C79.6753043,4.2783913 78.5496522,3.03795652 77.1813913,2.14317391 C75.8131304,1.25491304 74.2153043,0.681 72.5848696,0.558391304 C71.6366087,0.497086957 71.2857391,0.525782609 70.7496522,0.51926087 L69.6774783,0.51926087 L69.6774783,0.516652174 L65.9261739,0.516652174 L65.9261739,26.8344783 L69.6774783,26.8344783 L69.6774783,20.3231739 L69.6774783,16.5731739 Z" id="Fill-21" fill="#CB8331"></path>
                <polygon id="Fill-22" fill="#F7BF55" points="62.1743478 26.8343478 65.9256522 26.8343478 65.9256522 0.517826087 62.1743478 0.517826087"></polygon>
                <path d="M101.271,37.0344783 L116.737957,37.0344783 L116.737957,32.2083913 L96.444913,32.2083913 L96.444913,39.1031739 L96.444913,59.1744783 L96.444913,66.0679565 L116.737957,66.0679565 L116.737957,61.2418696 L101.271,61.2418696 L101.271,59.1744783 L101.271,53.9166522 L101.271,53.9153478 C101.268391,52.397087 102.058826,50.9140435 103.308391,50.0544783 C103.924043,49.6136087 104.645348,49.3240435 105.392739,49.2079565 C105.626217,49.1714348 105.862304,49.1557826 106.097087,49.1466522 C106.617522,49.1257826 107.139261,49.1466522 107.658391,49.1362174 L116.737957,49.1362174 L116.737957,44.3101304 L107.658391,44.3101304 L106.523609,44.3101304 L106.240565,44.3101304 L106.097087,44.3153478 L105.714913,44.3283913 C105.349696,44.3401304 104.985783,44.3844783 104.619261,44.4431739 C103.449261,44.6283913 102.306652,45.0366522 101.271,45.6366522 L101.271,39.1031739 L101.271,37.0344783 Z" id="Fill-23" fill="#CB8331"></path>
                <path d="M105.715304,44.3287826 L106.097478,44.3144348 L106.097478,41.8609565 L116.738348,41.8609565 L116.738348,37.0348696 L101.271391,37.0348696 L101.271391,39.1035652 L101.271391,45.6370435 C102.307043,45.0357391 103.449652,44.6287826 104.619652,44.4435652 C104.98487,44.3835652 105.350087,44.3392174 105.715304,44.3287826" id="Fill-24" fill="#F7BF55"></path>
                <path d="M103.309043,50.055 C102.058174,50.9132609 101.269043,52.3963043 101.271652,53.9145652 L101.271652,59.1736957 L101.271646,61.2423913 L116.738609,61.2423913 L116.738609,56.415 L106.097739,56.415 L106.097739,53.9967391 C106.110783,53.9836957 106.131652,53.9732609 106.165565,53.9719565 C106.174696,53.9693478 106.183826,53.9628261 106.198174,53.9693478 C106.21513,53.9693478 106.187739,53.9654348 106.239913,53.9628261 L106.524261,53.9628261 L107.659043,53.9628261 L116.738609,53.9628261 L116.738609,49.1367391 L107.659043,49.1367391 C107.139913,49.1471739 106.61687,49.125 106.097739,49.1458696 C105.861652,49.1563043 105.625565,49.1719565 105.393391,49.2071739 C104.644696,49.3232609 103.924696,49.6141304 103.309043,50.055" id="Fill-25" fill="#F7BF55"></path>
                <polygon id="Fill-26" fill="#CB8331" points="30.0808696 53.0401304 34.9278261 38.4379565 37.0017391 32.1901304 31.916087 32.1901304 20.6778261 66.051 25.7621739 66.051 28.9682609 56.3936087 28.9682609 56.3936087"></polygon>
                <polygon id="Fill-27" fill="#CB8331" points="40.499087 53.0401304 35.166913 53.0401304 33.5651739 57.8662174 42.3408261 57.8662174 44.1825652 62.6923043 45.4647391 66.051 50.6299565 66.051 40.0503913 38.3257826 37.6464783 45.5662174"></polygon>
                <polygon id="Fill-28" fill="#F7BF55" points="50.6294348 66.0504783 55.7959565 66.0504783 42.8763913 32.190913 42.0872609 32.190913 37.0016087 32.190913 34.9276957 38.4387391 30.0807391 53.0396087 28.9694348 56.3943913 25.7633478 66.0504783 30.849 66.0504783 31.9616087 62.693087 44.1833478 62.693087 42.3416087 57.867 33.5646522 57.867 35.1676957 53.0396087 37.6472609 45.5656957 40.0511739 38.3265652 40.0511739 38.3252609"></polygon>
                <polygon id="Fill-29" fill="#F7BF55" points="59.1726522 66.0504783 64.0548261 66.0504783 65.9278696 53.8000435 62.7178696 42.8539565"></polygon>
                <polygon id="Fill-30" fill="#F7BF55" points="67.6497391 42.5238261 72.3375652 58.5086087 74.8510435 49.9325217 69.6493043 32.1907826 64.6210435 32.1907826 64.6197391 32.1907826"></polygon>
                <polygon id="Fill-31" fill="#CB8331" points="85.6481739 66.0504783 90.5303478 66.0504783 86.9864348 42.8539565 83.7764348 53.8000435"></polygon>
                <polygon id="Fill-32" fill="#F7BF55" points="90.5306087 66.0504783 95.4127826 66.0504783 90.2397391 32.190913 90.1145217 32.190913 85.0836522 32.190913 82.0536522 42.5239565 77.3671304 58.5087391 77.3658261 58.5087391 75.1549565 66.0504783 80.1845217 66.0504783 83.7766957 53.8000435 86.9866957 42.8539565 86.9866957 42.8539565"></polygon>
                <polygon id="Fill-33" fill="#CB8331" points="82.0535217 42.5231739 82.0535217 42.5231739 85.0835217 32.1901304 80.0539565 32.1901304 74.8522174 49.9318696 72.3374348 58.5079565 72.3374348 58.5092609 67.6496087 42.5231739 64.6196087 32.1901304 59.5900435 32.1901304 59.4648261 32.1901304 54.2904783 66.051 59.1726522 66.051 62.7165652 42.8531739 62.7178696 42.8531739 65.9278696 53.8005652 69.5200435 66.051 70.1252609 66.051 75.1548261 66.051 77.3656957 58.5079565"></polygon>
                <path d="M24.3628696,37.0344783 L24.3628696,32.2083913 L3.25982609,32.2083913 L3.25982609,54.0340435 L3.25982609,54.4918696 L3.25982609,55.3801304 L3.25982609,58.937087 L3.25982609,59.1744783 L3.25982609,66.051 L8.08591304,66.051 L8.08591304,59.1744783 L8.08591304,58.937087 L8.08591304,55.3801304 C8.08721739,55.3683913 8.08591304,55.3553478 8.08721739,55.3436087 C8.08852174,55.1492609 8.08852174,54.9562174 8.08721739,54.7618696 C8.08721739,54.7566522 8.08721739,54.7514348 8.08591304,54.7462174 L8.08591304,54.7227391 L8.08591304,54.2636087 L8.08591304,54.2375217 C8.08591304,54.2323043 8.08721739,54.227087 8.08721739,54.2205652 C8.08852174,54.0144783 8.09243478,53.8083913 8.10678261,53.6036087 C8.15634783,53.0127391 8.32069565,52.4323043 8.58678261,51.9027391 C9.11765217,50.841 10.058087,49.9996957 11.1602609,49.5640435 C11.7224348,49.3214348 12.3146087,49.2392609 12.9146087,49.2144783 C13.4989565,49.1896957 14.0924348,49.2196957 14.6715652,49.2079565 L21.7841739,49.2079565 L21.7841739,44.3805652 L14.6715652,44.3805652 L13.7833043,44.3805652 L13.3385217,44.3805652 L13.1154783,44.3805652 L12.9798261,44.3818696 L12.9146087,44.3844783 L12.7646087,44.3896957 C11.622,44.417087 10.4650435,44.6427391 9.38373913,45.077087 C8.94026087,45.2518696 8.50721739,45.4723043 8.08721739,45.7162174 L8.08591304,45.7162174 L8.08591304,37.0344783 L24.3628696,37.0344783 Z" id="Fill-34" fill="#CB8331"></path>
                <path d="M12.7651304,44.3891739 L12.9138261,44.3852609 L12.9138261,41.8613478 L24.3633913,41.8613478 L24.3633913,37.0352609 L8.08773913,37.0352609 L8.08773913,45.7156957 C8.50643478,45.4717826 8.93947826,45.2526522 9.38295652,45.0765652 C10.4642609,44.6435217 11.6225217,44.4165652 12.7651304,44.3891739" id="Fill-35" fill="#F7BF55"></path>
                <path d="M8.58717391,51.9032609 C8.32108696,52.4328261 8.15673913,53.0132609 8.10717391,53.6028261 C8.09282609,53.808913 8.08891304,54.015 8.0876087,54.221087 L8.0876087,54.2471739 C8.0876087,54.2523913 8.08630435,54.2576087 8.08630435,54.2641304 L8.08630435,54.7219565 C8.08630435,54.7284783 8.0876087,54.7323913 8.0876087,54.7376087 L8.0876087,54.7623913 C8.08891304,54.9554348 8.08891304,55.1497826 8.0876087,55.3428261 L8.0876087,55.3806522 L8.0876087,58.9376087 L8.0876087,59.1736957 L8.0876087,66.0502174 L12.9136957,66.0502174 L12.918913,54.0632609 L12.9163043,54.0645652 C12.915,54.0658696 12.9097826,54.0645652 12.9371739,54.0515217 C12.9567391,54.0397826 12.9802174,54.0384783 13.0219565,54.0384783 L13.0297826,54.0345652 C13.0167391,54.0319565 13.0897826,54.0345652 13.1158696,54.0332609 L13.338913,54.0332609 L13.7823913,54.0332609 L14.6719565,54.0332609 L21.7845652,54.0332609 L21.7845652,49.2071739 L14.6719565,49.2071739 C14.0928261,49.2202174 13.4993478,49.1902174 12.9136957,49.215 L12.9136957,49.2136957 C12.3136957,49.2397826 11.7215217,49.3219565 11.1606522,49.5645652 C10.0584783,50.0002174 9.11673913,50.8415217 8.58717391,51.9032609" id="Fill-36" fill="#F7BF55"></path>
                <path d="M119.995565,103.126304 L119.999478,103.126304 C119.999478,103.075435 119.998174,103.024565 119.998174,102.975 C119.998174,103.024565 119.99687,103.075435 119.995565,103.126304" id="Fill-37" fill="#AA7721"></path>
                <path d="M27.0442174,73.8211304 C27.0442174,73.9241739 27.0403043,74.0246087 27.0403043,74.1276522 C27.042913,74.0206957 27.0442174,73.9189565 27.0442174,73.8211304" id="Fill-38" fill="#DEB04A"></path>
                <path d="M89.7777391,112.908261 C84.2146957,112.908261 79.689913,108.383478 79.689913,102.821739 C79.689913,108.010435 78.3816522,112.893913 76.0768696,117.160435 C79.6390435,120.563478 84.4638261,122.653043 89.7777391,122.653043 C100.730348,122.653043 109.958609,113.774348 109.958609,102.821739 L99.8642609,102.821739 C99.8642609,108.383478 95.3407826,112.908261 89.7777391,112.908261" id="Fill-39" fill="#CB8331"></path>
                <path d="M119.995565,102.821217 L109.958609,102.821217 C109.958609,113.773826 100.730348,122.653826 89.7777391,122.653826 C84.4638261,122.653826 79.6390435,120.562957 76.0768696,117.159913 C78.3816522,112.893391 79.689913,108.009913 79.689913,102.821217 L79.6951304,102.821217 C79.6951304,97.2529565 84.2081739,92.7386087 89.7777391,92.7386087 C95.346,92.7386087 99.8590435,97.2529565 99.8590435,102.821217 L99.8642609,102.821217 L109.958609,102.821217 C109.958609,94.232087 104.282087,86.9173043 96.549913,84.1612174 C94.4355652,83.3916522 92.1542609,82.9703478 89.7777391,82.9703478 C78.8316522,82.9703478 69.9268696,91.8751304 69.9268696,102.821217 C69.9268696,108.55513 67.3207826,113.719043 63.2668696,117.339913 C59.5768696,120.636 54.6868696,122.653826 49.4681739,122.653826 C38.5142609,122.653826 29.6355652,113.773826 29.6355652,102.821217 L19.2451304,102.821217 C19.2451304,110.617304 22.1968696,117.722087 27.0438261,123.082957 C32.5742609,129.200348 40.5712174,133.042957 49.4681739,133.042957 C57.212087,133.042957 64.2738261,130.129043 69.6229565,125.339478 C74.9694783,130.129043 82.0338261,133.042957 89.7777391,133.042957 C106.367739,133.042957 119.832522,119.676 119.995565,103.12513 C119.99687,103.075565 119.998174,103.024696 119.998174,102.97513 C119.998174,102.922957 119.999478,102.872087 119.999478,102.821217 L119.995565,102.821217 Z" id="Fill-40" fill="#F7BF55"></path>
                <path d="M49.4677826,82.9706087 C38.6247391,82.9706087 29.7851739,91.7110435 29.6208261,102.516261 L29.639087,102.516261 C29.6377826,102.618 29.6351739,102.718435 29.6351739,102.821478 L39.3799565,102.821478 L39.3851739,102.821478 C39.3851739,97.2532174 43.8982174,92.7388696 49.4677826,92.7388696 C55.0360435,92.7388696 59.549087,97.2532174 59.549087,102.821478 L59.5543043,102.821478 C59.5543043,98.0110435 60.6916957,93.0766957 63.179087,88.4814783 C59.5086522,84.9701739 54.636913,82.9706087 49.4677826,82.9706087" id="Fill-41" fill="#F7BF55"></path>
                <path d="M17.2807826,73.8211304 L6.9086087,73.8211304 C6.9086087,78.0785217 3.85643478,80.7302609 0.000782608696,80.7302609 L0.000782608696,90.492 L0.000782608696,91.1024348 C9.59034783,91.1024348 17.2807826,83.7941739 17.2807826,73.8211304" id="Fill-42" fill="#CB8331"></path>
                <path d="M27.0404348,74.1275217 C27.0404348,74.0244783 27.0443478,73.9240435 27.0443478,73.821 L17.2813043,73.821 C17.2813043,83.7953478 9.59086957,91.1023043 0,91.1023043 L0,100.865348 L0.00130434783,100.865348 C2.38826087,100.865348 4.70347826,100.553609 6.90782609,99.9731739 L6.90782609,132.223174 L7.51826087,132.223174 L7.99304348,132.223174 L8.60347826,132.223174 L9.07826087,132.223174 L9.68869565,132.223174 L10.1634783,132.223174 L10.7726087,132.223174 L11.2486957,132.223174 L11.8578261,132.223174 L12.3326087,132.223174 L12.9417391,132.223174 L13.4178261,132.223174 L14.0269565,132.223174 L14.5017391,132.223174 L15.1108696,132.223174 L15.5869565,132.223174 L16.1973913,132.223174 L16.6708696,132.223174 L16.6708696,95.2566522 L16.6708696,95.2253478 C17.7743478,94.3423043 18.7669565,93.3901304 19.6591304,92.391 C19.6578261,92.3923043 19.6578261,92.3923043 19.6578261,92.3923043 C19.6578261,92.3923043 19.6578261,92.391 19.6591304,92.391 C24.1708696,87.6157826 26.9608696,81.197087 27.0404348,74.1275217" id="Fill-43" fill="#F7BF55"></path>
                <path d="M29.6350435,102.821217 C29.6350435,102.718174 29.6376522,102.617739 29.6389565,102.516 L29.6206957,102.516 C29.7850435,91.7107826 38.6246087,82.9703478 49.4676522,82.9703478 C54.6367826,82.9703478 59.5085217,84.969913 63.1789565,88.4812174 C60.7724348,92.9277391 59.5541739,97.8373043 59.5541739,102.821217 C59.5541739,108.382957 55.0293913,112.907739 49.4676522,112.907739 C43.9046087,112.907739 39.3798261,108.382957 39.3798261,102.821217 L29.6350435,102.821217 C29.6350435,113.773826 38.5150435,122.653826 49.4676522,122.653826 C54.6863478,122.653826 59.5763478,120.636 63.2663478,117.339913 C67.3215652,113.719043 69.9276522,108.55513 69.9276522,102.821217 C69.9276522,91.8751304 78.8324348,82.9703478 89.7772174,82.9703478 C92.1550435,82.9703478 94.4363478,83.3916522 96.5506957,84.1612174 C104.281565,86.9173043 109.958087,94.232087 109.958087,102.821217 L119.995043,102.821217 C119.833304,85.446 105.905478,72.5981739 89.7772174,72.5981739 C82.0411304,72.5981739 74.9741739,75.5225217 69.6211304,80.3212174 C64.065913,75.339913 56.922,72.5981739 49.4676522,72.5981739 C40.5811304,72.5981739 32.5789565,76.4538261 27.0446087,82.5803478 L27.0446087,73.8216522 C27.0446087,73.9194783 27.0433043,74.0212174 27.0406957,74.1268696 C26.9611304,81.1977391 24.1711304,87.6164348 19.6593913,92.3916522 C18.7672174,93.3907826 17.7733043,94.3429565 16.6711304,95.2246957 L16.6711304,95.2573043 L16.6711304,132.223826 L27.0446087,132.223826 L27.0446087,123.082957 C22.1976522,117.722087 19.2446087,110.617304 19.2446087,102.821217 L29.6350435,102.821217 Z" id="Fill-44" fill="#CB8331"></path>
            </g>
        </g>
    </g>
</svg>